inDegrees=yes
name=ik_lifting_orientations
DataType=double
version=3
OpenSimVersion=4.5-2024-01-10-34fd6af
endheader
time	pelvis_tilt	pelvis_list	pelvis_rotation	pelvis_tx	pelvis_ty	pelvis_tz	hip_flexion_r	hip_adduction_r	hip_rotation_r	knee_angle_r	knee_angle_r_beta	ankle_angle_r	subtalar_angle_r	mtp_angle_r	hip_flexion_l	hip_adduction_l	hip_rotation_l	knee_angle_l	knee_angle_l_beta	ankle_angle_l	subtalar_angle_l	mtp_angle_l	lumbar_extension	lumbar_bending	lumbar_rotation	arm_flex_r	arm_add_r	arm_rot_r	elbow_flex_r	pro_sup_r	wrist_flex_r	wrist_dev_r	arm_flex_l	arm_add_l	arm_rot_l	elbow_flex_l	pro_sup_l	wrist_flex_l	wrist_dev_l
1.83	-8.155278454137614	20.45903519180639	30.34313270541742	0	0.9399999998679526	0	45.26454310635791	-10.19371386959008	0	60.00055844233027	1.047207297853944	-5.059481091874496	0	0	45.26454310635791	-10.19371386959008	0	60.00055844233027	1.047207297853944	-5.059481091874496	0	0	1.686807577468515	-21.94409769527339	-89.98838940702809	81.18342524955459	-13.60291900034671	33.65674103652329	63.35917300399618	1.199908544809943	0	0	0	-12.69594840003267	0	88.82363865720836	1.199908544809943	0	0
1.84	-8.203166003137326	20.58544960904399	29.77473724095014	0	0.9399999998679526	0	45.26442622232847	-10.19341390673713	0	60.000558297815	1.047207295331676	-5.059360884844806	0	0	45.26442622232847	-10.19341390673713	0	60.000558297815	1.047207295331676	-5.059360884844806	0	0	2.134981662349545	-22.11089959988679	-89.9887302013484	81.84544349359504	-12.30462011345586	34.31955564984693	61.18851434097849	1.199539976719992	0	0	0	-12.69646883228909	0	88.82399993658683	1.199539976719992	0	0
1.85	-8.234334540418166	20.75433990354297	29.28825403910778	0	0.9399999998679526	0	45.2643284292014	-10.19316316915893	0	60.00055817690071	1.047207293221324	-5.059260445788761	0	0	45.2643284292014	-10.19316316915893	0	60.00055817690071	1.047207293221324	-5.059260445788761	0	0	2.459205824301245	-22.30687475467807	-89.98897524789268	82.32398383839848	-11.55939705794509	34.87228906478342	59.04266993284021	1.199231577452308	0	0	0	-12.69690432691484	0	88.82430223702799	1.199231577452308	0	0
1.86	-8.275638317860473	20.9310018044212	28.74386851538842	0	0.9399999998679526	0	45.2642335145891	-10.19292004035401	0	60.00055805953269	1.047207291172865	-5.059163092806544	0	0	45.2642335145891	-10.19292004035401	0	60.00055805953269	1.047207291172865	-5.059163092806544	0	0	2.861833263352763	-22.51904060862118	-89.98925799705815	82.60353649556798	-10.69226549791226	35.45787419682661	57.43504886138067	1.198932219344329	0	0	0	-12.69732708689234	0	88.82459567510648	1.198932219344329	0	0
1.87	-8.426282322560899	20.98612555906856	28.48845803241608	0	0.9399999998679526	0	45.26412903174446	-10.19265264944184	0	60.00055793033718	1.047207288917978	-5.059056070817832	0	0	45.26412903174446	-10.19265264944184	0	60.00055793033718	1.047207288917978	-5.059056070817832	0	0	3.437814789526211	-22.69630864773104	-89.98980285069874	83.22635106218074	-9.796815099156982	35.82137922502153	55.43594021203	1.198602657542793	0	0	0	-12.69779251577033	0	88.82491871957905	1.198602657542793	0	0
1.88	-8.470837960733039	21.16740206450505	28.11688732968672	0	0.9399999998679526	0	45.26404969204037	-10.19244990840162	0	60.00055783217307	1.047207287204691	-5.058974964167684	0	0	45.26404969204037	-10.19244990840162	0	60.00055783217307	1.047207287204691	-5.058974964167684	0	0	3.718528995438526	-22.92986450594627	-89.98999567128277	83.71540440285244	-9.141414901937896	35.8709984334067	53.58325264334479	1.19835232632748	0	0	0	-12.69814613295162	0	88.82516410031133	1.19835232632748	0	0
1.89	-8.52281129825537	21.33691241300119	27.74792934858293	0	0.9399999998679526	0	45.26398219836143	-10.19227768251934	0	60.00055774861788	1.047207285746378	-5.058906096631937	0	0	45.26398219836143	-10.19227768251934	0	60.00055774861788	1.047207285746378	-5.058906096631937	0	0	4.015092518625807	-23.1530329166378	-89.99018029399963	84.22723672496195	-8.435498562094903	35.83829072636986	51.67058534165425	1.198139310256015	0	0	0	-12.69844710492138	0	88.82537290383586	1.198139310256015	0	0
1.9	-8.662136750717767	21.3671619023443	27.72003644428829	0	0.9399999998679526	0	45.26390807019683	-10.19208837924636	0	60.0005576569537	1.047207284146537	-5.058830401434831	0	0	45.26390807019683	-10.19208837924636	0	60.0005576569537	1.047207284146537	-5.058830401434831	0	0	4.407841190971757	-23.26337086955003	-89.99047933160277	84.77227918829762	-8.01481481920972	36.03365375911197	50.25924174731648	1.197905443608712	0	0	0	-12.69877742283351	0	88.82560214559884	1.197905443608712	0	0
1.91	-8.78746640664982	21.41847546850147	27.79913574809991	0	0.9399999998679526	0	45.26381463111262	-10.19184962912811	0	60.00055754151673	1.047207282131781	-5.058734939238732	0	0	45.26381463111262	-10.19184962912811	0	60.00055754151673	1.047207282131781	-5.058734939238732	0	0	4.645493595769489	-23.38396275551804	-89.99066594970182	85.16137493646795	-7.569159763905575	36.50924684410541	49.32813860932368	1.197610738838963	0	0	0	-12.6991935591725	0	88.82589102236381	1.197610738838963	0	0
1.92	-8.847877185648967	21.5424043049534	27.69064070124067	0	0.9399999998679526	0	45.26372552040527	-10.19162250304067	0	60.00055743127716	1.047207280207738	-5.058644187122398	0	0	45.26372552040527	-10.19162250304067	0	60.00055743127716	1.047207280207738	-5.058644187122398	0	0	4.798557827364634	-23.54165888988332	-89.99074025694047	85.86844002976727	-6.691708649451163	36.76636717283136	47.38320460402576	1.197329516544337	0	0	0	-12.69959085053565	0	88.82616668328444	1.197329516544337	0	0
1.93	-8.952550579487468	21.48499040756891	27.96456614746581	0	0.9399999998679526	0	45.26365915468651	-10.1914536230797	0	60.00055734912408	1.047207278773896	-5.05857674386129	0	0	45.26365915468651	-10.1914536230797	0	60.00055734912408	1.047207278773896	-5.05857674386129	0	0	4.888854997993604	-23.61047284630295	-89.99092525970298	86.64371573785282	-6.431579443655124	36.8541740730549	44.96335119939285	1.197120008214621	0	0	0	-12.69988689972096	0	88.82637204843756	1.197120008214621	0	0
1.94	-8.967507125295203	21.46396034233702	27.82098134545684	0	0.9399999998679526	0	45.2635648486118	-10.19121356758652	0	60.0005572324669	1.047207276737844	-5.058480884894619	0	0	45.2635648486118	-10.19121356758652	0	60.0005572324669	1.047207276737844	-5.058480884894619	0	0	5.062138832406985	-23.58812939824233	-89.99100165381353	87.37306001348168	-5.662826671032881	36.99013112205876	43.01384945638614	1.196822358583632	0	0	0	-12.70030741591524	0	88.82666381183355	1.196822358583632	0	0
1.95	-9.080854314033417	21.48308733778919	27.83902832787365	0	0.9399999998679526	0	45.26347128301189	-10.1909755019594	0	60.00055711675584	1.047207274718305	-5.058385847670963	0	0	45.26347128301189	-10.1909755019594	0	60.00055711675584	1.047207274718305	-5.058385847670963	0	0	5.379649296727294	-23.68009672744955	-89.99122652599895	87.95513167068391	-5.330086170582721	37.17548367239689	41.13330205304148	1.19652705334528	0	0	0	-12.70072460034133	0	88.82695327719908	1.19652705334528	0	0
1.96	-9.123992742699949	21.45458569906832	27.80792362244042	0	0.9399999998679526	0	45.26341183242987	-10.19082436368233	0	60.00055704322446	1.04720727343494	-5.058325532583228	0	0	45.26341183242987	-10.19082436368233	0	60.00055704322446	1.04720727343494	-5.058325532583228	0	0	5.523151347765194	-23.72688372032705	-89.99135374436158	88.16665528259041	-5.223318161296716	37.25034406576616	40.25413703344654	1.196339397867419	0	0	0	-12.70098972534218	0	88.82713722165605	1.196339397867419	0	0
1.97	-9.147602957814591	21.47271807625134	27.78426691953731	0	0.9399999998679526	0	45.26333156757783	-10.19062049299114	0	60.00055694392479	1.047207271701834	-5.058244200196697	0	0	45.26333156757783	-10.19062049299114	0	60.00055694392479	1.047207271701834	-5.058244200196697	0	0	5.565641286694821	-23.78225612124387	-89.99139214065983	88.64325130559752	-5.117492507835039	37.11940715068697	38.46949576056143	1.196086003510353	0	0	0	-12.70134776763314	0	88.8273856049603	1.196086003510353	0	0
1.98	-9.13928902826599	21.53660564684182	27.58254283563176	0	0.9399999998679526	0	45.26326563226669	-10.19045315807058	0	60.00055686233438	1.047207270277813	-5.058177463845185	0	0	45.26326563226669	-10.19045315807058	0	60.00055686233438	1.047207270277813	-5.058177463845185	0	0	5.651825798076553	-23.83654255532998	-89.99140410619633	88.78726878254028	-5.0726870713857	37.0409131272279	37.77912714122194	1.19587781717465	0	0	0	-12.7016419627636	0	88.82758967426479	1.19587781717465	0	0
1.99	-9.133662231298819	21.61831914740064	27.29035381480344	0	0.9399999998679526	0	45.26318984734522	-10.19026094065944	0	60.00055676855585	1.047207268641069	-5.058100824741628	0	0	45.26318984734522	-10.19026094065944	0	60.00055676855585	1.047207268641069	-5.058100824741628	0	0	5.786760013589132	-23.94339345389628	-89.99146512116376	88.95615749407897	-4.674843171425953	37.02254080850255	36.86744303742227	1.195638517109065	0	0	0	-12.70198013622777	0	88.82782424200389	1.195638517109065	0	0
2	-9.024934025322665	21.7931802285177	26.67520304933407	0	0.9399999998679526	0	45.26311311319814	-10.19006663104692	0	60.00055667352478	1.047207266982464	-5.058023388011138	0	0	45.26311311319814	-10.19006663104692	0	60.00055667352478	1.047207266982464	-5.058023388011138	0	0	5.80237705981387	-24.05566172206321	-89.99136075327935	88.98942708047025	-3.944652591076046	37.00589408135069	36.62527423834761	1.195396128191911	0	0	0	-12.70232277848373	0	88.82806183751299	1.195396128191911	0	0
2.01	-9.009095439661689	21.99957662915813	26.44859524668422	0	0.9399999998679526	0	45.26305736992891	-10.18992551210007	0	60.00055660450802	1.047207265777894	-5.057967160384627	0	0	45.26305736992891	-10.18992551210007	0	60.00055660450802	1.047207265777894	-5.057967160384627	0	0	5.769170219717391	-24.24299974471557	-89.99125959794864	89.11311173313209	-3.816365867682083	37.05336027000737	35.80971399315932	1.195220053592348	0	0	0	-12.70257166356624	0	88.82823443011577	1.195220053592348	0	0
2.02	-9.107425292303891	22.00682144227202	26.59069503065273	0	0.9399999998679526	0	45.26296301431113	-10.18968637467077	0	60.00055648785548	1.047207263741923	-5.057871874883783	0	0	45.26296301431113	-10.18968637467077	0	60.00055648785548	1.047207263741923	-5.057871874883783	0	0	5.920685640106614	-24.29648050505994	-89.99136951538152	89.4297444571547	-3.784120405381127	37.16773547028997	34.73181810056594	1.194922163321923	0	0	0	-12.70299254897338	0	88.8285264293968	1.194922163321923	0	0
